<?xml version="1.0" encoding="utf-8"?>
<!-- Generated by IcoMoon.io -->
<svg version="1.1" xmlns="http://www.w3.org/2000/svg" xmlns:xlink="http://www.w3.org/1999/xlink" width="752" height="32" viewBox="0 0 752 32">
<svg id="icon-logo" width="26" height="32" viewBox="0 0 26 32" x="0" y="0">
<path fill="#ffc727" d="M18.621 3.494c-2.328-0.582-4.655-1.747-6.401-3.494-1.746 1.747-4.073 2.911-6.401 3.494 0.582 5.24 2.328 8.734 6.401 11.645 4.073-2.911 6.401-6.405 6.401-11.645z"></path>
<path fill="#fbfbfb" d="M16.293 25.174l-16.293-19.215v9.316l12.802 14.557 3.491-4.658z"></path>
<path fill="#fbfbfb" d="M18.039 23.427l6.983-8.152v-8.734l-11.056 12.81 4.073 4.076z"></path>
<path fill="#fbfbfb" d="M18.621 26.339v5.24l6.401-7.569v-5.24l-6.401 7.569z"></path>
<path fill="#fbfbfb" d="M6.401 26.339l-6.401-7.569v5.24l6.401 7.569v-5.24z"></path>
</svg>
</svg>
